<?xml version="1.0" encoding="utf-8"?>
<!-- Generator: Adobe Illustrator 24.3.0, SVG Export Plug-In . SVG Version: 6.00 Build 0)  -->
<svg version="1.1" id="Layer_1" xmlns="http://www.w3.org/2000/svg" xmlns:xlink="http://www.w3.org/1999/xlink" x="0px" y="0px"
	 viewBox="0 0 100 100" style="enable-background:new 0 0 100 100;" xml:space="preserve">
<style type="text/css">
	.st0{fill:url(#SVGID_1_);}
	.st1{fill:url(#SVGID_2_);}
	.st2{fill:url(#SVGID_3_);}
	.st3{fill:url(#SVGID_4_);}
</style>
<g>
	
		<linearGradient id="SVGID_1_" gradientUnits="userSpaceOnUse" x1="42.055" y1="110.463" x2="100.2712" y2="30.7694" gradientTransform="matrix(1 0 0 -1 0 102)">
		<stop  offset="0" style="stop-color:#5191CD"/>
		<stop  offset="1" style="stop-color:#3D6EB6"/>
	</linearGradient>
	<path class="st0" d="M58.65,14.44c0.78-1.1,2.04-1.76,3.39-1.76h28c0.92,0.01,1.66,0.76,1.65,1.68c0,0.34-0.11,0.66-0.3,0.94
		L75.66,37.58H42.32L58.65,14.44z"/>
	
		<linearGradient id="SVGID_2_" gradientUnits="userSpaceOnUse" x1="-3.049" y1="77.5139" x2="55.1673" y2="-2.1798" gradientTransform="matrix(1 0 0 -1 0 102)">
		<stop  offset="0" style="stop-color:#5191CD"/>
		<stop  offset="1" style="stop-color:#3D6EB6"/>
	</linearGradient>
	<path class="st1" d="M41.75,85.63c-0.78,1.1-2.04,1.76-3.39,1.76h-28c-0.92-0.01-1.66-0.76-1.66-1.68c0-0.34,0.11-0.67,0.3-0.94
		l15.73-22.28h33.34L41.75,85.63z"/>
	
		<linearGradient id="SVGID_3_" gradientUnits="userSpaceOnUse" x1="0.9627" y1="80.4455" x2="59.179" y2="0.7519" gradientTransform="matrix(1 0 0 -1 0 102)">
		<stop  offset="0" style="stop-color:#5191CD"/>
		<stop  offset="1" style="stop-color:#3D6EB6"/>
	</linearGradient>
	<path class="st2" d="M2.07,37.58h40.25l-17.58,24.9H2.07c-0.92,0-1.67-0.75-1.67-1.67V39.24C0.4,38.33,1.15,37.58,2.07,37.58z"/>
	
		<linearGradient id="SVGID_4_" gradientUnits="userSpaceOnUse" x1="38.0419" y1="107.5319" x2="96.2581" y2="27.8382" gradientTransform="matrix(1 0 0 -1 0 102)">
		<stop  offset="0" style="stop-color:#5191CD"/>
		<stop  offset="1" style="stop-color:#3D6EB6"/>
	</linearGradient>
	<path class="st3" d="M98.34,37.58c0.92,0,1.67,0.75,1.67,1.67v21.57c0,0.92-0.75,1.67-1.67,1.67H58.09l17.58-24.9L98.34,37.58z"/>
</g>
</svg>
